<svg width="80" height="80" viewBox="0 0 80 80" fill="none" xmlns="http://www.w3.org/2000/svg">
<circle cx="40" cy="40" r="40" fill="white"/>
<path d="M57.8028 45.9013C54.4357 43.6995 47.9499 42.2206 40.3017 42.1599V39.042C42.2418 40.0574 45.5528 40.7086 49.393 40.7086C55.5099 40.7086 60.2961 39.0475 60.2961 36.923C60.2961 36.4208 59.8231 33.8272 58.4762 33.1319C57.0973 32.4146 55.2534 32.6243 53.1289 32.8615C51.9344 32.9995 50.6917 33.1375 49.393 33.1375C45.5528 33.1375 42.2418 33.7941 40.3017 34.804V31.6144C40.4861 31.6696 40.6785 31.6972 40.8869 31.6972H40.927L43.0756 31.5371C46.8676 31.2557 54.0108 30.3783 59.2298 27.6854C66.886 23.7288 63.0379 17.6973 62.9978 17.6366C62.3083 16.5826 60.4564 15.8707 58.7889 16.0197C58.5323 16.0418 52.5597 16.5991 47.8216 19.7225C42.2979 23.3701 40.1494 27.3322 39.5 28.8166C38.8506 27.3322 36.7021 23.3756 31.1703 19.728C26.4403 16.6046 20.4596 16.0473 20.2031 16.0252C18.5436 15.8762 16.6917 16.5881 16.0022 17.6421C15.9621 17.7028 12.114 23.7343 19.7702 27.6909C25.2618 30.5328 32.8138 31.3606 36.8223 31.6034L38.4818 31.7027C38.554 31.7027 38.6261 31.6972 38.6903 31.6861V34.8095C36.7502 33.7941 33.4392 33.143 29.599 33.143C28.2922 33.143 27.0576 33.005 25.8551 32.8671C23.7306 32.6243 21.8947 32.4201 20.5077 33.1375C19.1609 33.8328 18.6879 36.4264 18.6879 36.9285C18.6879 39.0531 23.474 40.7141 29.591 40.7141C33.4311 40.7141 36.7422 40.0574 38.6823 39.0476V42.1709C31.2906 42.3033 25.0614 43.7657 21.7744 45.9068C19.3854 47.2809 17.9904 48.9419 17.9904 50.7298C17.9904 52.6998 19.698 54.5153 22.5441 55.9667C22.496 56.0605 22.4719 56.1543 22.504 56.2536L24.9091 64.5531C24.9973 64.8511 25.4222 65.0498 25.8551 64.9891C26.288 64.9284 26.5686 64.6414 26.4884 64.3379L24.2918 56.7503C28.2441 58.323 33.7358 59.3052 39.7966 59.3052C45.8575 59.3052 51.3411 58.3285 55.2935 56.7503L53.1048 64.3269C53.0166 64.6249 53.2972 64.9173 53.7382 64.978C53.7943 64.9836 53.8424 64.9891 53.8985 64.9891C54.2753 64.9891 54.604 64.807 54.6842 64.5476L57.0893 56.2481C57.1213 56.1488 57.0973 56.0549 57.0492 55.9611C59.9032 54.5098 61.6028 52.6943 61.6028 50.7243C61.5948 48.9363 60.1919 47.2753 57.8028 45.9013ZM57.7948 20.4509C57.6104 20.175 57.1294 20.0536 56.7285 20.1805C56.4239 20.2743 49.7457 22.4485 41.3118 28.5683C42.1697 26.8963 44.3182 23.5687 48.928 20.5226C53.2652 17.6586 58.9252 17.1234 58.9813 17.1178C59.9433 17.0295 61.1298 17.4931 61.5227 18.0946C61.659 18.3098 64.8658 23.3866 58.2517 26.808C53.3453 29.3464 46.5229 30.1796 42.8912 30.45L40.895 30.599C40.8754 30.581 40.8617 30.5603 40.8549 30.5383C42.1947 29.5037 43.5934 28.5059 45.0478 27.5474C48.006 25.5939 50.6516 24.1592 52.7361 23.1549C55.5661 21.7863 57.3538 21.2014 57.3939 21.1903C57.8028 21.0579 57.9792 20.7268 57.7948 20.4509ZM40.3017 36.4098C40.3177 36.3822 40.3498 36.3601 40.3658 36.3325C41.3279 35.2565 44.7591 34.2466 49.393 34.2466C50.828 34.2466 52.1909 34.0921 53.3934 33.9542C54.3475 33.8438 55.2374 33.7445 55.9829 33.7445C56.6083 33.7445 57.1374 33.8162 57.5222 34.0149C58.0994 34.3128 58.7007 36.2222 58.7007 36.923C58.7007 38.1922 54.8846 39.6049 49.401 39.6049C45.5769 39.6049 42.5705 38.9151 41.0954 38.0708L49.9141 36.6581C50.347 36.5919 50.6116 36.2939 50.5153 35.9959C50.4191 35.6979 49.9862 35.5103 49.5533 35.5821L40.5101 37.0279L40.3017 37.0665V36.4098ZM36.9666 30.5052C33.1265 30.2735 25.9112 29.4843 20.7322 26.808C14.1182 23.3866 17.325 18.3098 17.4613 18.0946C17.8301 17.5372 18.8643 17.1068 19.7702 17.1068C19.8504 17.1068 19.9305 17.1123 20.0027 17.1178C20.0588 17.1234 25.7188 17.6586 30.056 20.5226C34.6738 23.5687 36.8143 26.8963 37.6721 28.5683C29.2543 22.4485 22.5761 20.2798 22.2715 20.1805C21.8706 20.0536 21.3976 20.175 21.2052 20.4509C21.0128 20.7268 21.1972 21.0524 21.5981 21.1848C21.6381 21.1959 23.4179 21.7808 26.2559 23.1493C28.3403 24.1537 30.986 25.5884 33.9442 27.5419C35.4172 28.5172 36.8346 29.5315 38.1932 30.5825L36.9666 30.5052ZM38.5059 37.072L29.4627 35.5876C29.0378 35.5214 28.5969 35.6979 28.5007 35.9959C28.3965 36.2939 28.661 36.5919 29.0939 36.6581L37.8726 38.0984C36.3814 38.9317 33.3911 39.6049 29.607 39.6049C24.1234 39.6049 20.3073 38.1922 20.3073 36.923C20.3073 36.2167 20.9086 34.3128 21.4858 34.0149C21.8706 33.8162 22.3917 33.7445 23.0251 33.7445C23.7707 33.7445 24.6525 33.8438 25.6146 33.9542C26.8171 34.0921 28.18 34.2466 29.615 34.2466C34.2489 34.2466 37.6801 35.2565 38.6342 36.3325C38.7304 36.8844 38.7945 37.2155 38.5059 37.072ZM44.1018 52.7329C44.5427 52.7329 44.9035 52.4846 44.9035 52.1811C44.9035 51.8776 44.5427 51.6293 44.1018 51.6293H40.3017V48.8977C47.036 48.9694 52.9766 50.4759 54.8445 52.617C54.9487 52.7385 55.0369 52.8599 55.1091 52.9757C51.6457 54.5429 46.0178 55.5859 39.7966 55.5859C33.5995 55.5859 27.9876 54.5485 24.5243 52.9923C25.8711 50.785 31.7957 49.0743 38.6983 48.9032V51.6238H34.8982C34.4573 51.6238 34.0965 51.8721 34.0965 52.1756C34.0965 52.4791 34.4573 52.7274 34.8982 52.7274H44.1018V52.7329ZM24.5643 45.8351C27.25 44.6376 31.2104 43.7547 35.724 43.4125C35.732 43.4125 38.6422 43.2746 38.6983 43.269V47.7996C31.2104 47.9651 25.0694 49.7751 23.2175 52.3191C21.7584 51.4472 20.9166 50.4594 20.9166 49.422C20.9166 48.0976 22.2795 46.8504 24.5643 45.8351ZM59.9914 50.7243C59.9914 52.5784 58.1475 54.2781 55.1091 55.5859C54.1631 55.9942 53.0968 56.364 51.9344 56.6896C48.5512 57.6332 44.3503 58.1905 39.8046 58.1905C35.259 58.1905 31.0581 57.6332 27.6749 56.6896C26.5125 56.364 25.4462 55.9942 24.5002 55.5859C21.4618 54.2781 19.6179 52.5784 19.6179 50.7243V50.6856C20.604 52.766 24.0112 54.5209 28.8134 55.5859C31.972 56.2867 35.732 56.6896 39.8046 56.6896C43.8773 56.6896 47.6372 56.2867 50.7959 55.5859C55.5981 54.5209 59.0053 52.766 59.9914 50.6856V50.7243ZM56.4158 52.3025C56.3517 52.2197 56.2956 52.1314 56.2234 52.0487C54.0508 49.5544 47.6853 47.8658 40.3017 47.7941V43.2635C40.4701 43.2635 40.9831 43.2746 41.0713 43.2746C41.3199 43.2801 42.5625 43.3298 42.811 43.3408C42.8671 43.3463 43.5646 43.3849 43.8452 43.407H43.8773C48.3828 43.7436 52.3352 44.6266 55.0209 45.824C57.3138 46.8449 58.6847 48.0865 58.6847 49.4164C58.6847 50.4539 57.8589 51.4361 56.4158 52.3025Z" fill="#013220"/>
</svg>
